<mxfile host="app.diagrams.net" modified="2024-02-22T13:32:23.656Z" agent="Mozilla/5.0 (Windows NT 10.0; Win64; x64) AppleWebKit/537.36 (KHTML, like Gecko) Chrome/121.0.0.0 Safari/537.36 Edg/121.0.0.0" etag="4lXSRTmjxENiBnMV_d2c" version="23.1.5" type="github">
  <diagram name="Page-1" id="TWm2WNOojCXmG828KJlD">
    <mxGraphModel dx="1426" dy="905" grid="1" gridSize="10" guides="1" tooltips="1" connect="1" arrows="1" fold="1" page="1" pageScale="1" pageWidth="850" pageHeight="1100" math="0" shadow="0">
      <root>
        <mxCell id="0" />
        <mxCell id="1" parent="0" />
        <mxCell id="EWhgeYXYT30elMlZ50Et-3" value="" style="edgeStyle=orthogonalEdgeStyle;rounded=1;orthogonalLoop=1;jettySize=auto;html=1;labelBackgroundColor=none;strokeColor=#182E3E;fontColor=default;" edge="1" parent="1" source="EWhgeYXYT30elMlZ50Et-2" target="EWhgeYXYT30elMlZ50Et-1">
          <mxGeometry relative="1" as="geometry" />
        </mxCell>
        <mxCell id="EWhgeYXYT30elMlZ50Et-7" value="" style="edgeStyle=orthogonalEdgeStyle;rounded=1;orthogonalLoop=1;jettySize=auto;html=1;labelBackgroundColor=none;strokeColor=#182E3E;fontColor=default;" edge="1" parent="1" source="EWhgeYXYT30elMlZ50Et-1" target="EWhgeYXYT30elMlZ50Et-6">
          <mxGeometry relative="1" as="geometry" />
        </mxCell>
        <mxCell id="EWhgeYXYT30elMlZ50Et-8" value="" style="edgeStyle=orthogonalEdgeStyle;rounded=1;orthogonalLoop=1;jettySize=auto;html=1;labelBackgroundColor=none;strokeColor=#182E3E;fontColor=default;" edge="1" parent="1" source="EWhgeYXYT30elMlZ50Et-1" target="EWhgeYXYT30elMlZ50Et-6">
          <mxGeometry relative="1" as="geometry" />
        </mxCell>
        <mxCell id="EWhgeYXYT30elMlZ50Et-9" value="" style="edgeStyle=orthogonalEdgeStyle;rounded=1;orthogonalLoop=1;jettySize=auto;html=1;labelBackgroundColor=none;strokeColor=#182E3E;fontColor=default;" edge="1" parent="1" source="EWhgeYXYT30elMlZ50Et-1" target="EWhgeYXYT30elMlZ50Et-6">
          <mxGeometry relative="1" as="geometry" />
        </mxCell>
        <mxCell id="EWhgeYXYT30elMlZ50Et-11" value="" style="edgeStyle=orthogonalEdgeStyle;rounded=1;orthogonalLoop=1;jettySize=auto;html=1;labelBackgroundColor=none;strokeColor=#182E3E;fontColor=default;" edge="1" parent="1" source="EWhgeYXYT30elMlZ50Et-1" target="EWhgeYXYT30elMlZ50Et-10">
          <mxGeometry relative="1" as="geometry">
            <Array as="points">
              <mxPoint x="200" y="460" />
              <mxPoint x="200" y="380" />
            </Array>
          </mxGeometry>
        </mxCell>
        <mxCell id="EWhgeYXYT30elMlZ50Et-13" value="" style="edgeStyle=orthogonalEdgeStyle;rounded=1;orthogonalLoop=1;jettySize=auto;html=1;labelBackgroundColor=none;strokeColor=#182E3E;fontColor=default;" edge="1" parent="1" source="EWhgeYXYT30elMlZ50Et-1" target="EWhgeYXYT30elMlZ50Et-12">
          <mxGeometry relative="1" as="geometry">
            <Array as="points">
              <mxPoint x="200" y="460" />
              <mxPoint x="200" y="300" />
            </Array>
          </mxGeometry>
        </mxCell>
        <mxCell id="EWhgeYXYT30elMlZ50Et-15" value="" style="edgeStyle=orthogonalEdgeStyle;rounded=1;orthogonalLoop=1;jettySize=auto;html=1;labelBackgroundColor=none;strokeColor=#182E3E;fontColor=default;" edge="1" parent="1" source="EWhgeYXYT30elMlZ50Et-1" target="EWhgeYXYT30elMlZ50Et-14">
          <mxGeometry relative="1" as="geometry">
            <Array as="points">
              <mxPoint x="200" y="460" />
              <mxPoint x="200" y="540" />
            </Array>
          </mxGeometry>
        </mxCell>
        <mxCell id="EWhgeYXYT30elMlZ50Et-17" value="" style="edgeStyle=orthogonalEdgeStyle;rounded=1;orthogonalLoop=1;jettySize=auto;html=1;labelBackgroundColor=none;strokeColor=#182E3E;fontColor=default;" edge="1" parent="1" source="EWhgeYXYT30elMlZ50Et-1" target="EWhgeYXYT30elMlZ50Et-16">
          <mxGeometry relative="1" as="geometry">
            <Array as="points">
              <mxPoint x="200" y="460" />
              <mxPoint x="200" y="620" />
            </Array>
          </mxGeometry>
        </mxCell>
        <mxCell id="EWhgeYXYT30elMlZ50Et-1" value="MOVIES SERVER" style="rounded=1;whiteSpace=wrap;html=1;labelBackgroundColor=none;fillColor=#F5AB50;strokeColor=#909090;fontColor=#1A1A1A;" vertex="1" parent="1">
          <mxGeometry x="10" y="430" width="120" height="60" as="geometry" />
        </mxCell>
        <mxCell id="EWhgeYXYT30elMlZ50Et-2" value="DATABASE" style="rounded=1;whiteSpace=wrap;html=1;labelBackgroundColor=none;fillColor=#F5AB50;strokeColor=#909090;fontColor=#1A1A1A;" vertex="1" parent="1">
          <mxGeometry x="10" y="290" width="120" height="60" as="geometry" />
        </mxCell>
        <mxCell id="EWhgeYXYT30elMlZ50Et-4" value="" style="endArrow=none;html=1;rounded=1;labelBackgroundColor=none;strokeColor=#182E3E;fontColor=default;" edge="1" parent="1">
          <mxGeometry width="50" height="50" relative="1" as="geometry">
            <mxPoint x="40" y="410" as="sourcePoint" />
            <mxPoint x="90" y="360" as="targetPoint" />
          </mxGeometry>
        </mxCell>
        <mxCell id="EWhgeYXYT30elMlZ50Et-5" value="" style="endArrow=none;html=1;rounded=1;labelBackgroundColor=none;strokeColor=#182E3E;fontColor=default;" edge="1" parent="1">
          <mxGeometry width="50" height="50" relative="1" as="geometry">
            <mxPoint x="50" y="360" as="sourcePoint" />
            <mxPoint x="110" y="420" as="targetPoint" />
          </mxGeometry>
        </mxCell>
        <mxCell id="EWhgeYXYT30elMlZ50Et-6" value="CREATE" style="rounded=1;whiteSpace=wrap;html=1;labelBackgroundColor=none;fillColor=#F5AB50;strokeColor=#909090;fontColor=#1A1A1A;" vertex="1" parent="1">
          <mxGeometry x="270" y="430" width="120" height="60" as="geometry" />
        </mxCell>
        <mxCell id="EWhgeYXYT30elMlZ50Et-10" value="GET BY ID" style="rounded=1;whiteSpace=wrap;html=1;labelBackgroundColor=none;fillColor=#F5AB50;strokeColor=#909090;fontColor=#1A1A1A;" vertex="1" parent="1">
          <mxGeometry x="270" y="350" width="120" height="60" as="geometry" />
        </mxCell>
        <mxCell id="EWhgeYXYT30elMlZ50Et-27" value="" style="rounded=1;orthogonalLoop=1;jettySize=auto;html=1;labelBackgroundColor=none;strokeColor=none;fontColor=default;" edge="1" parent="1" source="EWhgeYXYT30elMlZ50Et-12" target="EWhgeYXYT30elMlZ50Et-26">
          <mxGeometry relative="1" as="geometry" />
        </mxCell>
        <mxCell id="EWhgeYXYT30elMlZ50Et-12" value="GET ALL" style="rounded=1;whiteSpace=wrap;html=1;labelBackgroundColor=none;fillColor=#F5AB50;strokeColor=#909090;fontColor=#1A1A1A;" vertex="1" parent="1">
          <mxGeometry x="270" y="270" width="120" height="60" as="geometry" />
        </mxCell>
        <mxCell id="EWhgeYXYT30elMlZ50Et-33" value="" style="edgeStyle=orthogonalEdgeStyle;rounded=1;orthogonalLoop=1;jettySize=auto;html=1;labelBackgroundColor=none;strokeColor=none;fontColor=default;" edge="1" parent="1" source="EWhgeYXYT30elMlZ50Et-14" target="EWhgeYXYT30elMlZ50Et-32">
          <mxGeometry relative="1" as="geometry" />
        </mxCell>
        <mxCell id="EWhgeYXYT30elMlZ50Et-14" value="UPDATE" style="rounded=1;whiteSpace=wrap;html=1;labelBackgroundColor=none;fillColor=#F5AB50;strokeColor=#909090;fontColor=#1A1A1A;" vertex="1" parent="1">
          <mxGeometry x="270" y="510" width="120" height="60" as="geometry" />
        </mxCell>
        <mxCell id="EWhgeYXYT30elMlZ50Et-16" value="DELETE" style="rounded=1;whiteSpace=wrap;html=1;labelBackgroundColor=none;fillColor=#F5AB50;strokeColor=#909090;fontColor=#1A1A1A;" vertex="1" parent="1">
          <mxGeometry x="270" y="590" width="120" height="60" as="geometry" />
        </mxCell>
        <mxCell id="EWhgeYXYT30elMlZ50Et-20" value="GORILLA&lt;br&gt;MUX" style="text;html=1;align=center;verticalAlign=middle;whiteSpace=wrap;rounded=1;labelBackgroundColor=none;fontColor=#1A1A1A;" vertex="1" parent="1">
          <mxGeometry x="130" y="390" width="60" height="30" as="geometry" />
        </mxCell>
        <mxCell id="EWhgeYXYT30elMlZ50Et-24" value="LOCALHOST:8080" style="text;html=1;align=center;verticalAlign=middle;whiteSpace=wrap;rounded=1;labelBackgroundColor=none;fontColor=#1A1A1A;" vertex="1" parent="1">
          <mxGeometry x="40" y="520" width="60" height="30" as="geometry" />
        </mxCell>
        <mxCell id="EWhgeYXYT30elMlZ50Et-25" value="ROUTES" style="text;html=1;align=center;verticalAlign=middle;whiteSpace=wrap;rounded=1;labelBackgroundColor=none;fontColor=#1A1A1A;" vertex="1" parent="1">
          <mxGeometry x="300" y="220" width="60" height="30" as="geometry" />
        </mxCell>
        <mxCell id="EWhgeYXYT30elMlZ50Et-47" value="" style="edgeStyle=orthogonalEdgeStyle;rounded=1;orthogonalLoop=1;jettySize=auto;html=1;" edge="1" parent="1" source="EWhgeYXYT30elMlZ50Et-26" target="EWhgeYXYT30elMlZ50Et-46">
          <mxGeometry relative="1" as="geometry" />
        </mxCell>
        <mxCell id="EWhgeYXYT30elMlZ50Et-26" value="getMovies" style="rounded=1;whiteSpace=wrap;html=1;labelBackgroundColor=none;fillColor=#F5AB50;strokeColor=#909090;fontColor=#1A1A1A;" vertex="1" parent="1">
          <mxGeometry x="470" y="270" width="120" height="60" as="geometry" />
        </mxCell>
        <mxCell id="EWhgeYXYT30elMlZ50Et-49" value="" style="edgeStyle=orthogonalEdgeStyle;rounded=1;orthogonalLoop=1;jettySize=auto;html=1;" edge="1" parent="1" source="EWhgeYXYT30elMlZ50Et-28" target="EWhgeYXYT30elMlZ50Et-48">
          <mxGeometry relative="1" as="geometry" />
        </mxCell>
        <mxCell id="EWhgeYXYT30elMlZ50Et-28" value="getMovie" style="rounded=1;whiteSpace=wrap;html=1;labelBackgroundColor=none;fillColor=#F5AB50;strokeColor=#909090;fontColor=#1A1A1A;" vertex="1" parent="1">
          <mxGeometry x="470" y="350" width="120" height="60" as="geometry" />
        </mxCell>
        <mxCell id="EWhgeYXYT30elMlZ50Et-51" value="" style="edgeStyle=orthogonalEdgeStyle;rounded=1;orthogonalLoop=1;jettySize=auto;html=1;" edge="1" parent="1" source="EWhgeYXYT30elMlZ50Et-30" target="EWhgeYXYT30elMlZ50Et-50">
          <mxGeometry relative="1" as="geometry" />
        </mxCell>
        <mxCell id="EWhgeYXYT30elMlZ50Et-30" value="createMovie" style="rounded=1;whiteSpace=wrap;html=1;labelBackgroundColor=none;fillColor=#F5AB50;strokeColor=#909090;fontColor=#1A1A1A;" vertex="1" parent="1">
          <mxGeometry x="470" y="430" width="120" height="60" as="geometry" />
        </mxCell>
        <mxCell id="EWhgeYXYT30elMlZ50Et-53" value="" style="edgeStyle=orthogonalEdgeStyle;rounded=1;orthogonalLoop=1;jettySize=auto;html=1;" edge="1" parent="1" source="EWhgeYXYT30elMlZ50Et-32" target="EWhgeYXYT30elMlZ50Et-52">
          <mxGeometry relative="1" as="geometry" />
        </mxCell>
        <mxCell id="EWhgeYXYT30elMlZ50Et-32" value="updateMovie" style="rounded=1;whiteSpace=wrap;html=1;labelBackgroundColor=none;fillColor=#F5AB50;strokeColor=#909090;fontColor=#1A1A1A;" vertex="1" parent="1">
          <mxGeometry x="470" y="510" width="120" height="60" as="geometry" />
        </mxCell>
        <mxCell id="EWhgeYXYT30elMlZ50Et-55" value="" style="edgeStyle=orthogonalEdgeStyle;rounded=1;orthogonalLoop=1;jettySize=auto;html=1;" edge="1" parent="1" source="EWhgeYXYT30elMlZ50Et-34" target="EWhgeYXYT30elMlZ50Et-54">
          <mxGeometry relative="1" as="geometry" />
        </mxCell>
        <mxCell id="EWhgeYXYT30elMlZ50Et-34" value="deleteMovie" style="rounded=1;whiteSpace=wrap;html=1;labelBackgroundColor=none;fillColor=#F5AB50;strokeColor=#909090;fontColor=#1A1A1A;" vertex="1" parent="1">
          <mxGeometry x="470" y="590" width="120" height="60" as="geometry" />
        </mxCell>
        <mxCell id="EWhgeYXYT30elMlZ50Et-38" value="FUNTIONS" style="text;html=1;align=center;verticalAlign=middle;whiteSpace=wrap;rounded=1;labelBackgroundColor=none;fontColor=#1A1A1A;" vertex="1" parent="1">
          <mxGeometry x="500" y="220" width="60" height="30" as="geometry" />
        </mxCell>
        <mxCell id="EWhgeYXYT30elMlZ50Et-40" value="" style="endArrow=none;html=1;rounded=1;exitX=1;exitY=0.5;exitDx=0;exitDy=0;entryX=0;entryY=0.5;entryDx=0;entryDy=0;" edge="1" parent="1" source="EWhgeYXYT30elMlZ50Et-12" target="EWhgeYXYT30elMlZ50Et-26">
          <mxGeometry width="50" height="50" relative="1" as="geometry">
            <mxPoint x="450" y="180" as="sourcePoint" />
            <mxPoint x="520" y="180" as="targetPoint" />
          </mxGeometry>
        </mxCell>
        <mxCell id="EWhgeYXYT30elMlZ50Et-42" value="" style="endArrow=none;html=1;rounded=1;entryX=0;entryY=0.5;entryDx=0;entryDy=0;exitX=1;exitY=0.5;exitDx=0;exitDy=0;" edge="1" parent="1" source="EWhgeYXYT30elMlZ50Et-16" target="EWhgeYXYT30elMlZ50Et-34">
          <mxGeometry width="50" height="50" relative="1" as="geometry">
            <mxPoint x="400" y="510" as="sourcePoint" />
            <mxPoint x="450" y="460" as="targetPoint" />
          </mxGeometry>
        </mxCell>
        <mxCell id="EWhgeYXYT30elMlZ50Et-43" value="" style="endArrow=none;html=1;rounded=1;exitX=1;exitY=0.5;exitDx=0;exitDy=0;entryX=0;entryY=0.5;entryDx=0;entryDy=0;" edge="1" parent="1" source="EWhgeYXYT30elMlZ50Et-14" target="EWhgeYXYT30elMlZ50Et-32">
          <mxGeometry width="50" height="50" relative="1" as="geometry">
            <mxPoint x="400" y="510" as="sourcePoint" />
            <mxPoint x="450" y="460" as="targetPoint" />
          </mxGeometry>
        </mxCell>
        <mxCell id="EWhgeYXYT30elMlZ50Et-44" value="" style="endArrow=none;html=1;rounded=1;entryX=0;entryY=0.5;entryDx=0;entryDy=0;exitX=1;exitY=0.5;exitDx=0;exitDy=0;" edge="1" parent="1" source="EWhgeYXYT30elMlZ50Et-6" target="EWhgeYXYT30elMlZ50Et-30">
          <mxGeometry width="50" height="50" relative="1" as="geometry">
            <mxPoint x="400" y="510" as="sourcePoint" />
            <mxPoint x="450" y="460" as="targetPoint" />
          </mxGeometry>
        </mxCell>
        <mxCell id="EWhgeYXYT30elMlZ50Et-45" value="" style="endArrow=none;html=1;rounded=1;entryX=0;entryY=0.5;entryDx=0;entryDy=0;exitX=1;exitY=0.5;exitDx=0;exitDy=0;" edge="1" parent="1" source="EWhgeYXYT30elMlZ50Et-10" target="EWhgeYXYT30elMlZ50Et-28">
          <mxGeometry width="50" height="50" relative="1" as="geometry">
            <mxPoint x="400" y="510" as="sourcePoint" />
            <mxPoint x="450" y="460" as="targetPoint" />
          </mxGeometry>
        </mxCell>
        <mxCell id="EWhgeYXYT30elMlZ50Et-58" value="" style="edgeStyle=orthogonalEdgeStyle;rounded=1;orthogonalLoop=1;jettySize=auto;html=1;" edge="1" parent="1" source="EWhgeYXYT30elMlZ50Et-46" target="EWhgeYXYT30elMlZ50Et-57">
          <mxGeometry relative="1" as="geometry" />
        </mxCell>
        <mxCell id="EWhgeYXYT30elMlZ50Et-46" value="/movies" style="rounded=1;whiteSpace=wrap;html=1;labelBackgroundColor=none;fillColor=#F5AB50;strokeColor=#909090;fontColor=#1A1A1A;" vertex="1" parent="1">
          <mxGeometry x="670" y="270" width="120" height="60" as="geometry" />
        </mxCell>
        <mxCell id="EWhgeYXYT30elMlZ50Et-60" value="" style="edgeStyle=orthogonalEdgeStyle;rounded=1;orthogonalLoop=1;jettySize=auto;html=1;" edge="1" parent="1" source="EWhgeYXYT30elMlZ50Et-48" target="EWhgeYXYT30elMlZ50Et-59">
          <mxGeometry relative="1" as="geometry" />
        </mxCell>
        <mxCell id="EWhgeYXYT30elMlZ50Et-48" value="/movies/id" style="rounded=1;whiteSpace=wrap;html=1;labelBackgroundColor=none;fillColor=#F5AB50;strokeColor=#909090;fontColor=#1A1A1A;" vertex="1" parent="1">
          <mxGeometry x="670" y="350" width="120" height="60" as="geometry" />
        </mxCell>
        <mxCell id="EWhgeYXYT30elMlZ50Et-62" value="" style="edgeStyle=orthogonalEdgeStyle;rounded=1;orthogonalLoop=1;jettySize=auto;html=1;" edge="1" parent="1" source="EWhgeYXYT30elMlZ50Et-50" target="EWhgeYXYT30elMlZ50Et-61">
          <mxGeometry relative="1" as="geometry" />
        </mxCell>
        <mxCell id="EWhgeYXYT30elMlZ50Et-50" value="/movies" style="rounded=1;whiteSpace=wrap;html=1;labelBackgroundColor=none;fillColor=#F5AB50;strokeColor=#909090;fontColor=#1A1A1A;" vertex="1" parent="1">
          <mxGeometry x="670" y="430" width="120" height="60" as="geometry" />
        </mxCell>
        <mxCell id="EWhgeYXYT30elMlZ50Et-64" value="" style="edgeStyle=orthogonalEdgeStyle;rounded=1;orthogonalLoop=1;jettySize=auto;html=1;" edge="1" parent="1" source="EWhgeYXYT30elMlZ50Et-52" target="EWhgeYXYT30elMlZ50Et-63">
          <mxGeometry relative="1" as="geometry" />
        </mxCell>
        <mxCell id="EWhgeYXYT30elMlZ50Et-52" value="/movies/id" style="rounded=1;whiteSpace=wrap;html=1;labelBackgroundColor=none;fillColor=#F5AB50;strokeColor=#909090;fontColor=#1A1A1A;" vertex="1" parent="1">
          <mxGeometry x="670" y="510" width="120" height="60" as="geometry" />
        </mxCell>
        <mxCell id="EWhgeYXYT30elMlZ50Et-66" value="" style="edgeStyle=orthogonalEdgeStyle;rounded=1;orthogonalLoop=1;jettySize=auto;html=1;" edge="1" parent="1" source="EWhgeYXYT30elMlZ50Et-54" target="EWhgeYXYT30elMlZ50Et-65">
          <mxGeometry relative="1" as="geometry" />
        </mxCell>
        <mxCell id="EWhgeYXYT30elMlZ50Et-54" value="/movies/id" style="rounded=1;whiteSpace=wrap;html=1;labelBackgroundColor=none;fillColor=#F5AB50;strokeColor=#909090;fontColor=#1A1A1A;" vertex="1" parent="1">
          <mxGeometry x="670" y="590" width="120" height="60" as="geometry" />
        </mxCell>
        <mxCell id="EWhgeYXYT30elMlZ50Et-56" value="ENDPOINTS" style="text;html=1;align=center;verticalAlign=middle;whiteSpace=wrap;rounded=0;" vertex="1" parent="1">
          <mxGeometry x="700" y="220" width="60" height="30" as="geometry" />
        </mxCell>
        <mxCell id="EWhgeYXYT30elMlZ50Et-57" value="GET" style="rounded=1;whiteSpace=wrap;html=1;labelBackgroundColor=none;fillColor=#F5AB50;strokeColor=#909090;fontColor=#1A1A1A;" vertex="1" parent="1">
          <mxGeometry x="870" y="270" width="120" height="60" as="geometry" />
        </mxCell>
        <mxCell id="EWhgeYXYT30elMlZ50Et-59" value="GET" style="rounded=1;whiteSpace=wrap;html=1;labelBackgroundColor=none;fillColor=#F5AB50;strokeColor=#909090;fontColor=#1A1A1A;" vertex="1" parent="1">
          <mxGeometry x="870" y="350" width="120" height="60" as="geometry" />
        </mxCell>
        <mxCell id="EWhgeYXYT30elMlZ50Et-61" value="POST" style="rounded=1;whiteSpace=wrap;html=1;labelBackgroundColor=none;fillColor=#F5AB50;strokeColor=#909090;fontColor=#1A1A1A;" vertex="1" parent="1">
          <mxGeometry x="870" y="430" width="120" height="60" as="geometry" />
        </mxCell>
        <mxCell id="EWhgeYXYT30elMlZ50Et-63" value="PUT" style="rounded=1;whiteSpace=wrap;html=1;labelBackgroundColor=none;fillColor=#F5AB50;strokeColor=#909090;fontColor=#1A1A1A;" vertex="1" parent="1">
          <mxGeometry x="870" y="510" width="120" height="60" as="geometry" />
        </mxCell>
        <mxCell id="EWhgeYXYT30elMlZ50Et-65" value="DELETE" style="rounded=1;whiteSpace=wrap;html=1;labelBackgroundColor=none;fillColor=#F5AB50;strokeColor=#909090;fontColor=#1A1A1A;" vertex="1" parent="1">
          <mxGeometry x="870" y="590" width="120" height="60" as="geometry" />
        </mxCell>
        <mxCell id="EWhgeYXYT30elMlZ50Et-67" value="METHODS" style="text;html=1;align=center;verticalAlign=middle;whiteSpace=wrap;rounded=0;" vertex="1" parent="1">
          <mxGeometry x="900" y="230" width="60" height="30" as="geometry" />
        </mxCell>
        <mxCell id="EWhgeYXYT30elMlZ50Et-69" value="" style="edgeStyle=orthogonalEdgeStyle;rounded=1;orthogonalLoop=1;jettySize=auto;html=1;entryX=1;entryY=0.5;entryDx=0;entryDy=0;" edge="1" parent="1" source="EWhgeYXYT30elMlZ50Et-68" target="EWhgeYXYT30elMlZ50Et-61">
          <mxGeometry relative="1" as="geometry">
            <mxPoint x="1030" y="460" as="targetPoint" />
          </mxGeometry>
        </mxCell>
        <mxCell id="EWhgeYXYT30elMlZ50Et-68" value="POSTMAN" style="rounded=1;whiteSpace=wrap;html=1;fillColor=#F5AB50;strokeColor=#d6b656;" vertex="1" parent="1">
          <mxGeometry x="1110" y="430" width="120" height="60" as="geometry" />
        </mxCell>
        <mxCell id="EWhgeYXYT30elMlZ50Et-71" value="" style="edgeStyle=orthogonalEdgeStyle;rounded=1;orthogonalLoop=1;jettySize=auto;html=1;entryX=1;entryY=0.5;entryDx=0;entryDy=0;exitX=0;exitY=0.5;exitDx=0;exitDy=0;" edge="1" parent="1" source="EWhgeYXYT30elMlZ50Et-68" target="EWhgeYXYT30elMlZ50Et-65">
          <mxGeometry relative="1" as="geometry">
            <mxPoint x="1000" y="470" as="targetPoint" />
            <mxPoint x="1120" y="470" as="sourcePoint" />
          </mxGeometry>
        </mxCell>
        <mxCell id="EWhgeYXYT30elMlZ50Et-72" value="" style="edgeStyle=orthogonalEdgeStyle;rounded=1;orthogonalLoop=1;jettySize=auto;html=1;entryX=1;entryY=0.5;entryDx=0;entryDy=0;exitX=0;exitY=0.5;exitDx=0;exitDy=0;" edge="1" parent="1" source="EWhgeYXYT30elMlZ50Et-68" target="EWhgeYXYT30elMlZ50Et-63">
          <mxGeometry relative="1" as="geometry">
            <mxPoint x="1000" y="470" as="targetPoint" />
            <mxPoint x="1120" y="470" as="sourcePoint" />
          </mxGeometry>
        </mxCell>
        <mxCell id="EWhgeYXYT30elMlZ50Et-73" value="" style="edgeStyle=orthogonalEdgeStyle;rounded=1;orthogonalLoop=1;jettySize=auto;html=1;entryX=1;entryY=0.5;entryDx=0;entryDy=0;exitX=0;exitY=0.5;exitDx=0;exitDy=0;" edge="1" parent="1" source="EWhgeYXYT30elMlZ50Et-68" target="EWhgeYXYT30elMlZ50Et-59">
          <mxGeometry relative="1" as="geometry">
            <mxPoint x="1000" y="470" as="targetPoint" />
            <mxPoint x="1120" y="470" as="sourcePoint" />
          </mxGeometry>
        </mxCell>
        <mxCell id="EWhgeYXYT30elMlZ50Et-74" value="" style="edgeStyle=orthogonalEdgeStyle;rounded=1;orthogonalLoop=1;jettySize=auto;html=1;entryX=1;entryY=0.5;entryDx=0;entryDy=0;exitX=0;exitY=0.5;exitDx=0;exitDy=0;" edge="1" parent="1" source="EWhgeYXYT30elMlZ50Et-68" target="EWhgeYXYT30elMlZ50Et-57">
          <mxGeometry relative="1" as="geometry">
            <mxPoint x="1000" y="470" as="targetPoint" />
            <mxPoint x="1110" y="550" as="sourcePoint" />
          </mxGeometry>
        </mxCell>
      </root>
    </mxGraphModel>
  </diagram>
</mxfile>
